HIERARCHY
ROOT ROOT
{
	OFFSET 0.000000 56.020000 -5.659234
	CHANNELS 6 Xposition Yposition Zposition Xrotation Yrotation Zrotation 
	JOINT C_spine0001_bind_JNT
	{
		OFFSET 0.000000 1.618999 0.000000
		CHANNELS 3 Xrotation Yrotation Zrotation
		JOINT C_spine0002_bind_JNT
		{
			OFFSET 0.000000 4.942001 0.000001
			CHANNELS 3 Xrotation Yrotation Zrotation
			JOINT C_spine0003_bind_JNT
			{
				OFFSET 0.000000 4.942001 -0.000000
				CHANNELS 3 Xrotation Yrotation Zrotation
				JOINT C_neck0001_bind_JNT
				{
					OFFSET 0.000000 17.026009 -0.000000
					CHANNELS 3 Xrotation Yrotation Zrotation
					JOINT C_neck0002_bind_JNT
					{
						OFFSET 0.000000 3.249985 0.000000
						CHANNELS 3 Xrotation Yrotation Zrotation
						JOINT C_head_bind_JNT
						{
							OFFSET 0.000000 5.278008 0.000000
							CHANNELS 3 Xrotation Yrotation Zrotation
							End Site
							{
								OFFSET 0.000000 0.000000 0.000000
							}
						}
					}
				}
				JOINT L_clavicle_bind_JNT
				{
					OFFSET 4.590000 12.067001 0.834000
					CHANNELS 3 Xrotation Yrotation Zrotation
					JOINT L_armUpper0001_bind_JNT
					{
						OFFSET 7.812635 0.512001 -3.452945
						CHANNELS 3 Xrotation Yrotation Zrotation
						JOINT L_armLower0001_bind_JNT
						{
							OFFSET 15.265892 -6.552116 -0.058157
							CHANNELS 3 Xrotation Yrotation Zrotation
							JOINT L_hand0001_bind_JNT
							{
								OFFSET 14.747667 -6.369995 5.049225
								CHANNELS 3 Xrotation Yrotation Zrotation
								End Site
								{
									OFFSET 0.000000 0.000000 0.000000
								}
							}
						}
					}
				}
				JOINT R_clavicle_bind_JNT
				{
					OFFSET -4.590000 12.067001 0.834000
					CHANNELS 3 Xrotation Yrotation Zrotation
					JOINT R_armUpper0001_bind_JNT
					{
						OFFSET -7.812635 0.512001 -3.452945
						CHANNELS 3 Xrotation Yrotation Zrotation
						JOINT R_armLower0001_bind_JNT
						{
							OFFSET -15.265890 -6.552124 -0.058160
							CHANNELS 3 Xrotation Yrotation Zrotation
							JOINT R_hand0001_bind_JNT
							{
								OFFSET -14.746784 -6.369629 5.048937
								CHANNELS 3 Xrotation Yrotation Zrotation
								End Site
								{
									OFFSET 0.000000 0.000000 0.000000
								}
							}
						}
					}
				}
			}
		}
	}
	JOINT C_pelvis0001_bind_JNT
	{
		OFFSET -0.000000 0.000000 0.000000
		CHANNELS 3 Xrotation Yrotation Zrotation
		JOINT L_legUpper0001_bind_JNT
		{
			OFFSET 6.599999 -6.027000 0.539000
			CHANNELS 3 Xrotation Yrotation Zrotation
			JOINT L_legLower0001_bind_JNT
			{
				OFFSET -0.140713 -19.187443 0.040261
				CHANNELS 3 Xrotation Yrotation Zrotation
				JOINT L_foot0001_bind_JNT
				{
					OFFSET -0.132215 -18.028637 -1.138370
					CHANNELS 3 Xrotation Yrotation Zrotation
					JOINT L_foot0002_bind_JNT
					{
						OFFSET 0.007014 -4.693133 9.886524
						CHANNELS 3 Xrotation Yrotation Zrotation
						End Site
						{
							OFFSET 0.000000 0.000000 0.000000
						}
					}
				}
			}
		}
		JOINT R_legUpper0001_bind_JNT
		{
			OFFSET -6.599999 -6.027000 0.539000
			CHANNELS 3 Xrotation Yrotation Zrotation
			JOINT R_legLower0001_bind_JNT
			{
				OFFSET 0.140710 -19.187164 0.040550
				CHANNELS 3 Xrotation Yrotation Zrotation
				JOINT R_foot0001_bind_JNT
				{
					OFFSET 0.132215 -18.028633 -1.138362
					CHANNELS 3 Xrotation Yrotation Zrotation
					JOINT R_foot0002_bind_JNT
					{
						OFFSET -0.007014 -4.693128 9.886505
						CHANNELS 3 Xrotation Yrotation Zrotation
						End Site
						{
							OFFSET 0.000000 0.000000 0.000000
						}
					}
				}
			}
		}
	}
}
MOTION
Frames: 13
Frame Time: 0.033333
-1.649435 49.823368 18.564241 -0.002340 6.380708 -0.000448 -5.317520 3.656292 -3.283364 4.743296 0.483042 -0.759520 1.677404 0.301504 -0.233543 0.187498 -0.198714 1.178697 0.366982 -10.791711 -0.788970 6.286756 -1.043468 -7.001238 -1.324634 15.052709 -3.373335 8.550233 10.570827 -59.137482 9.254137 6.222178 -0.254886 -19.528347 -22.113564 -22.227976 -3.444458 -21.934050 0.829439 12.112169 -13.892121 61.237698 24.126217 -4.633304 -0.472533 0.639936 31.378160 34.889359 -3.094149 3.399198 -3.016437 11.619744 0.176153 2.790095 10.426559 0.811641 0.298562 -4.936670 -3.188389 -1.572005 -29.794695 -0.159665 -0.222278 8.260250 -0.131234 -0.342928 -16.795192 -6.192743 -0.063082 -1.785386 2.275802 4.999608 -4.973960 0.450495 0.430222
-1.551782 49.835957 18.524988 0.005490 6.248460 -0.009007 -5.227611 3.769770 -3.119124 4.514011 0.407380 -0.811021 1.734420 0.274627 -0.323927 0.265360 -0.223312 1.277092 0.417868 -10.735231 -0.699374 6.270236 -1.217938 -7.185251 -1.382816 15.156694 -3.342955 8.223250 10.687400 -59.047714 9.357524 6.024319 -0.287366 -19.281755 -22.112537 -21.994083 -3.355810 -21.907192 0.858972 12.023857 -13.958560 61.123791 23.933479 -4.318807 -0.088428 0.744946 31.651337 34.927334 -3.019650 3.335398 -2.873446 11.953404 0.070151 2.640825 9.323242 1.028452 0.260314 -5.313267 -3.075926 -1.659061 -28.670919 -0.418555 -0.334318 8.504099 -0.347118 -0.872855 -17.152599 -6.007714 0.040686 -2.124603 2.226792 5.209729 -4.584040 0.320310 0.493959
-1.449527 49.853024 18.496517 0.002376 6.009606 0.004294 -5.243483 3.728888 -2.994478 4.495717 0.481711 -0.984010 1.654357 0.270597 -0.187185 0.343193 -0.388630 1.083113 0.375347 -10.593521 -0.808505 6.358193 -1.198633 -6.936480 -1.435297 15.117730 -3.456320 7.745783 10.693522 -59.050999 9.503748 6.018259 -0.404460 -19.214693 -22.036983 -21.804203 -3.565119 -21.910114 0.573072 12.127135 -14.224353 60.984325 23.758299 -4.009615 -0.060029 0.969745 31.878981 35.000908 -3.079206 3.272665 -2.748635 12.460361 -0.125099 2.298051 8.565869 1.363965 0.235739 -5.868903 -2.984549 -1.732136 -27.340483 -0.499310 -0.169550 8.658455 -0.316269 -1.164959 -17.315541 -5.799988 -0.012660 -2.302853 2.214359 5.332745 -4.387868 0.531383 0.444048
-1.312828 49.818073 18.575127 0.011030 6.046586 -0.003150 -5.077633 3.537481 -2.882982 4.418990 0.298730 -1.175804 1.486863 0.177581 -0.304771 0.232266 -0.199477 1.153120 0.584283 -10.566658 -0.685707 6.712422 -1.248879 -7.093844 -1.381401 15.229760 -3.475584 7.178107 10.861521 -59.148697 9.654860 5.721656 -0.533539 -19.046124 -21.921576 -21.318361 -3.516330 -21.878933 0.958169 12.073164 -14.524752 60.191826 23.947145 -3.019240 0.426634 0.926081 31.937428 34.968151 -3.044364 2.881553 -2.687938 13.217967 -0.158434 1.881384 7.041845 1.090853 0.351686 -6.414257 -2.391081 -1.559996 -25.366375 -0.588735 -0.078444 9.068443 -0.339891 -1.407783 -17.384419 -5.222013 -0.103918 -2.544055 2.281685 5.385891 -4.566621 0.376534 0.466545
-1.079774 49.838696 18.625191 -0.000879 5.758069 -0.004660 -5.121789 3.610302 -3.030577 4.331249 0.336691 -1.275144 1.599038 0.224804 -0.274238 0.122675 -0.237501 1.015070 0.577563 -10.477753 -0.773792 6.764328 -1.180140 -6.983190 -1.502010 15.262829 -3.448569 6.790319 10.490833 -59.295723 9.645225 5.441136 -0.642989 -19.164555 -22.376108 -20.715528 -3.636196 -21.912386 0.737112 12.097145 -14.682278 60.005428 23.929314 -2.118542 0.662118 1.267823 32.268517 34.442383 -3.023564 2.929992 -2.915113 13.371692 -0.214837 1.931009 6.476646 1.250201 0.113840 -6.872996 -2.428548 -1.301128 -22.855047 -0.463911 -0.120222 8.663018 -0.586267 -1.454501 -16.327219 -4.693892 -0.175794 -2.594279 2.430857 5.599216 -5.350889 0.232618 0.695815
-0.864602 49.754875 18.732145 0.009514 5.719546 -0.005849 -5.305643 3.576247 -3.053425 4.625755 0.181789 -1.690055 1.394908 0.170347 -0.335197 0.213071 -0.274893 1.070479 0.536377 -10.667451 -0.696564 6.864204 -1.120529 -6.716564 -1.348266 15.074800 -3.334433 5.982645 10.179502 -59.379517 9.749303 5.116868 -0.714320 -18.951273 -22.512314 -19.898960 -3.339007 -22.141582 1.017011 11.918693 -14.723993 59.242939 24.168226 -1.094582 1.366133 1.217596 31.996019 34.390572 -2.978766 2.831583 -3.134191 13.592099 -0.316387 1.819968 5.603607 0.945916 0.283965 -7.566215 -1.905573 -1.063151 -20.302027 -0.600709 -0.215604 8.442594 -0.873840 -1.544149 -14.668080 -4.439039 0.075234 -2.314170 2.742985 5.943677 -7.237534 0.011293 0.330153
-0.592044 49.740868 18.770302 0.010840 5.363013 -0.005158 -5.426259 3.543989 -3.161599 4.790333 0.359826 -1.975543 1.748575 0.232243 -0.408482 0.007304 -0.449199 0.835378 0.450685 -10.707606 -0.784511 6.688128 -1.102109 -6.332231 -1.655764 14.665003 -3.302643 4.949438 9.688217 -59.427799 9.741974 4.997149 -0.745046 -18.510004 -23.142973 -19.127583 -3.731879 -22.541063 0.966169 11.357554 -14.418812 59.034256 24.481359 -0.968183 1.596935 1.420062 32.017075 34.143211 -3.235809 2.849514 -3.391360 14.166885 -0.419421 1.770059 5.272472 1.680983 0.125256 -8.492573 -2.415921 -0.762994 -17.763563 -0.326636 0.121204 6.992385 -0.706714 -1.902164 -10.905908 -4.560139 0.711128 -1.778676 3.274434 6.223192 -9.673774 0.245326 -0.144354
-0.311034 49.676228 18.764595 0.009303 5.230293 -0.019553 -5.774583 3.456393 -3.315882 5.270959 0.208417 -2.544913 1.703886 0.049464 -0.464741 0.125942 -0.073785 0.727764 0.353478 -10.733397 -0.602476 6.398651 -0.785202 -6.223129 -1.923481 14.525774 -2.884970 4.436144 9.199973 -59.548798 9.534621 4.287457 -1.020823 -18.043520 -22.788258 -17.890844 -3.396534 -22.737701 1.283645 11.190593 -14.251431 58.624817 24.582867 0.006306 1.785605 1.240877 31.498201 34.075420 -3.572438 2.867042 -3.711535 14.586492 -0.510378 1.842221 5.413631 1.390636 0.110781 -9.836583 -1.996075 -0.533572 -14.241163 -0.534879 0.139522 4.732288 -0.844714 -2.492746 -5.811430 -4.457712 1.613710 -0.493806 4.100819 7.949943 -12.768026 0.678626 -0.737086
-0.033080 49.621441 18.774725 0.010581 5.104255 0.002486 -5.919496 3.327828 -3.899550 5.473920 0.058700 -2.605304 2.137239 0.007658 -0.645912 -0.067205 -0.151486 0.676569 0.421292 -10.005259 -0.585159 5.891027 -0.903176 -5.904004 -2.546175 14.277552 -2.632579 3.944051 8.651287 -59.295845 9.065433 3.703942 -1.152150 -17.516039 -23.145329 -17.086084 -3.572833 -22.794724 1.290666 11.162306 -14.205193 58.798191 24.777533 0.879233 1.432285 1.435506 31.285872 34.012100 -3.838443 2.855378 -4.013867 14.995564 -0.666616 1.899652 5.543041 1.866452 -0.037430 -10.637508 -2.288162 -0.560722 -10.879478 -0.613953 0.263077 1.348333 -0.782342 -2.862995 0.514053 -5.091970 2.475696 0.575420 5.456909 10.085110 -15.023987 0.791189 -1.056144
0.212354 49.510658 18.841963 0.011279 5.084604 -0.019665 -6.410994 3.166385 -4.227610 6.189719 -0.126588 -3.127271 2.238349 -0.157677 -0.745211 0.396265 0.060664 0.217674 0.274422 -9.660182 -0.323413 5.237034 -0.643999 -5.190425 -2.885018 13.649135 -2.194386 3.253453 8.267796 -59.395676 8.330144 3.626325 -1.042342 -17.231068 -23.271559 -16.297543 -3.123266 -22.920452 1.581046 10.880059 -14.019085 58.928944 25.052130 1.405610 1.359491 1.405892 31.093861 33.606564 -4.277767 2.948504 -4.301385 15.350218 -0.824169 2.132763 5.919244 1.877153 -0.316018 -11.475762 -2.192055 -0.137348 -7.615070 -0.698962 0.107460 -2.387523 -1.127360 -3.582454 7.441147 -5.262761 3.854218 1.622543 6.999632 12.246247 -15.176520 0.888095 -1.258201
0.439144 49.453022 19.079046 0.025663 4.980542 -0.007948 -6.684721 3.198423 -4.543283 6.693104 -0.408115 -3.290748 2.588791 -0.527999 -0.949821 0.399730 0.006126 0.078204 0.190072 -8.899554 -0.420868 4.743977 -0.706781 -4.482316 -3.235910 13.229642 -2.167757 2.653568 7.470634 -59.260971 7.337701 3.641156 -0.855553 -16.576569 -23.737759 -14.810052 -3.180718 -22.985750 1.903522 10.620079 -13.576010 58.794075 24.699039 1.280737 1.044775 1.715081 31.029369 33.492783 -4.680130 3.103545 -4.793642 16.283546 -0.876564 2.528358 6.211090 2.293637 -0.441919 -12.405894 -2.691253 0.223016 -5.751091 -0.455289 -0.142243 -5.980667 -0.743584 -3.868255 13.130043 -5.833940 5.075537 1.918040 8.221000 13.345101 -13.083701 0.811958 -1.545773
0.583232 49.402496 19.355707 0.020758 4.697773 -0.037459 -7.221619 3.211676 -4.885597 7.523879 -0.721560 -3.917057 2.707333 -0.700774 -1.111967 0.934902 0.118943 -0.244040 -0.161732 -8.385262 -0.254199 3.980325 -0.210308 -4.260275 -3.705586 12.666354 -1.630805 2.311056 7.152464 -59.323906 6.608628 3.872052 -0.925870 -16.669050 -23.931219 -13.754767 -2.827168 -23.243130 2.206197 10.740653 -13.201565 59.217976 24.755894 1.167151 0.728603 1.078879 30.878403 33.940083 -5.012348 3.219219 -5.389292 16.407242 -0.853781 3.260355 7.365717 2.270032 -0.674178 -13.667525 -2.526852 0.149444 -3.951887 -0.877297 -0.076438 -9.507292 -0.382104 -4.182371 17.851330 -5.759542 6.368655 1.681920 8.724525 13.745414 -10.565502 0.823888 -1.596337
0.723969 49.311539 19.759813 0.025768 4.870077 -0.004950 -7.477111 2.905531 -5.462359 7.949431 -1.033845 -4.040160 3.180485 -1.133767 -1.403308 0.764953 0.304421 -0.486040 -0.133492 -7.287697 -0.216297 3.379009 -0.184908 -3.746985 -4.261252 12.384302 -1.494983 2.048086 6.919091 -59.227875 5.944380 4.030228 -0.867819 -16.313589 -24.526024 -12.763102 -2.877289 -22.895485 2.453050 11.259447 -13.391389 59.434505 24.408468 1.372993 0.291909 0.973612 30.843769 33.974731 -5.409739 2.846718 -5.994544 17.211725 -0.582477 3.688215 7.975848 2.255972 -0.513495 -14.392167 -2.521344 0.117259 -3.631827 -0.772093 -0.190610 -12.094675 -0.149277 -4.173548 19.838341 -5.840926 6.769347 0.755999 8.963004 14.100499 -8.308843 0.884101 -1.344424
